<svg id="Logo" xmlns="http://www.w3.org/2000/svg" xmlns:xlink="http://www.w3.org/1999/xlink" viewBox="0 0 240.95 65.91"><defs><style>.cls-1{fill:none;}.cls-2{fill:#009879;}.cls-3{fill:#fff;}.cls-4{clip-path:url(#clip-path);}.cls-5{fill:#1d1d1b;}</style><clipPath id="clip-path" transform="translate(-13.18 -13.25)"><rect class="cls-1" x="65.4" y="23.92" width="188.73" height="29.03"/></clipPath></defs><title>fokus_85mm_CMYK_2016</title><path class="cls-2" d="M13.18,52.5A342.3,342.3,0,0,0,52.25,28.67v-3.8A339.57,339.57,0,0,1,13.18,46.59Z" transform="translate(-13.18 -13.25)"/><path class="cls-2" d="M13.18,41.16A298.46,298.46,0,0,0,52.25,22V20.08a172.56,172.56,0,0,1-39.07,13.4Z" transform="translate(-13.18 -13.25)"/><path class="cls-2" d="M52.25,52.52V33.43c-8.89,7.5-17.7,14-25.1,19.09Z" transform="translate(-13.18 -13.25)"/><path class="cls-2" d="M22.15,52.52a273,273,0,0,0,24-16c2-1.49,4-3,6-4.6V29.58A332.29,332.29,0,0,1,16.82,52.52Z" transform="translate(-13.18 -13.25)"/><path class="cls-2" d="M13.18,30.71A154.16,154.16,0,0,0,52.25,18.59V16.46a119.16,119.16,0,0,1-39.07,9.73Z" transform="translate(-13.18 -13.25)"/><path class="cls-2" d="M13.18,13.25V24.19L15.79,24c9.5-.73,22.46-2.41,36.46-8.46v-2.3Z" transform="translate(-13.18 -13.25)"/><path class="cls-3" d="M13.18,24.19v2a119.16,119.16,0,0,0,39.07-9.73v-.91c-14,6-27,7.73-36.46,8.46Z" transform="translate(-13.18 -13.25)"/><path class="cls-3" d="M13.18,33.48a172.56,172.56,0,0,0,39.07-13.4V18.59A154.16,154.16,0,0,1,13.18,30.71Z" transform="translate(-13.18 -13.25)"/><path class="cls-3" d="M13.18,46.59A339.57,339.57,0,0,0,52.25,24.87V22A298.46,298.46,0,0,1,13.18,41.16Z" transform="translate(-13.18 -13.25)"/><path class="cls-3" d="M22.15,52.52h5c7.4-5.1,16.21-11.59,25.1-19.09V31.95c-2,1.58-4.07,3.11-6,4.6A273,273,0,0,1,22.15,52.52Z" transform="translate(-13.18 -13.25)"/><path class="cls-3" d="M13.18,52.52h3.64A332.29,332.29,0,0,0,52.25,29.58v-.91A342.3,342.3,0,0,1,13.18,52.5Z" transform="translate(-13.18 -13.25)"/><g class="cls-4"><path class="cls-5" d="M242.76,52.5h5V45.41c0-2.77,0-7.88,4.08-7.88a5.1,5.1,0,0,1,2.25.41V32.88a5.51,5.51,0,0,0-1.54-.15c-3,0-5.06,3-5.29,4.84h-.08V33.18h-4.46Zm-5-5.18a13,13,0,0,1-6.42,2c-3.11,0-5.28-1.76-5.51-4.88h13.35c0-6.75-2-11.66-9.19-11.66-6,0-9,4.61-9,10.2,0,6.34,3.71,10,10.09,10a13.26,13.26,0,0,0,6.64-1.54Zm-11.93-6.38c.23-2.59,1.65-4.54,4.46-4.54s3.94,2.1,4.09,4.54ZM209.76,52.5h5V36.86h4.39V33.18h-4.39v-2.4c0-1.5.53-3,2.22-3a3.87,3.87,0,0,1,2.17.68l.41-4.16a17.73,17.73,0,0,0-3.67-.41c-4,0-6.15,2.7-6.15,6.56v2.7H206v3.67h3.71Zm-20-10.13c0-2.89,1.57-5.74,4.84-5.74s4.87,2.78,4.87,5.74c0,3.23-1,6.68-4.87,6.68s-4.84-3.49-4.84-6.68m-5.25.6c0,5.55,3.72,10,10.09,10s10.12-4.43,10.12-10c0-6.38-4.38-10.24-10.12-10.24S184.52,36.6,184.52,43M163.59,52.5h5V43c0-2.47.79-6.41,4.43-6.41,3.22,0,3.26,3.19,3.26,5.55V52.5h5V40.31c0-4.35-2-7.58-6.56-7.58a7.18,7.18,0,0,0-6.07,3.08h-.08V24.37h-5Zm-22.91,0h5V43c0-2.47.79-6.41,4.43-6.41,3.22,0,3.26,3.19,3.26,5.55V52.5h5V40.31c0-4.35-2-7.58-6.56-7.58a7.21,7.21,0,0,0-6.34,3.08h-.08V33.18h-4.76ZM135.5,33.18h-5v9.45c0,2.47-.79,6.41-4.42,6.41-3.23,0-3.26-3.19-3.26-5.55V33.18h-5V45.37c0,4.35,2,7.58,6.56,7.58a8.05,8.05,0,0,0,6.34-3.08h.08V52.5h4.76ZM101.22,46.91c0-3,3.34-3.34,5.59-3.34H109a6.4,6.4,0,0,1-1.05,4,4.28,4.28,0,0,1-3.52,1.73c-1.8,0-3.19-.72-3.19-2.36m-2.55-8.4a10.09,10.09,0,0,1,6-2.1c3,0,4.35,1,4.35,4.16h-2.78a15.28,15.28,0,0,0-6.49,1.12,5.68,5.68,0,0,0-3.3,5.52c0,3.67,3.34,5.74,6.75,5.74a6.89,6.89,0,0,0,6-3.34h.08a24.39,24.39,0,0,0,.22,2.89h4.42c-.11-1.5-.19-2.86-.23-4.32s-.07-2.89-.07-4.84V40.87c0-5.7-2.44-8.14-8.33-8.14a17.3,17.3,0,0,0-6.71,1.46Zm-15.11,14h5V45.41c0-2.77,0-7.88,4.09-7.88a5.1,5.1,0,0,1,2.25.41V32.88a5.47,5.47,0,0,0-1.54-.15c-3,0-5.06,3-5.29,4.84H88V33.18H83.56Zm-18.15,0h5.25V41h8.85V36.89H70.65V30.44H80V26.32H65.4Z" transform="translate(-13.18 -13.25)"/></g><path class="cls-5" d="M195.43,65.84h7V67.9H198v3.23h4.28v2.06H198v5.74h-2.54Z" transform="translate(-13.18 -13.25)"/><path class="cls-5" d="M204.52,72.35a7.14,7.14,0,0,1,1.6-4.88,5.79,5.79,0,0,1,4.61-1.86,5.87,5.87,0,0,1,4.61,1.88,7.11,7.11,0,0,1,1.59,4.86,7.4,7.4,0,0,1-1.58,4.88,5.81,5.81,0,0,1-4.62,1.93,5.74,5.74,0,0,1-4.61-1.91A7.21,7.21,0,0,1,204.52,72.35Zm2.65,0A6.12,6.12,0,0,0,208,75.6a3,3,0,0,0,2.74,1.5,3.19,3.19,0,0,0,1.67-.41,3.06,3.06,0,0,0,1.09-1.09,6.48,6.48,0,0,0,.8-3.25,6.21,6.21,0,0,0-.82-3.21,3,3,0,0,0-2.74-1.46,3,3,0,0,0-2.7,1.46A6,6,0,0,0,207.17,72.35Z" transform="translate(-13.18 -13.25)"/><path class="cls-5" d="M219.88,65.84h2.54v5.63L227,65.84h3.12L224.9,72l5.42,6.92H227l-4.55-6.08h0v6.08h-2.54Z" transform="translate(-13.18 -13.25)"/><path class="cls-5" d="M232.51,65.84h2.54V73.4a4.86,4.86,0,0,0,.6,2.66,2.53,2.53,0,0,0,4.08,0,5.22,5.22,0,0,0,.58-2.66V65.84h2.54v8.37q-.07,5-5.17,5t-5.17-5Z" transform="translate(-13.18 -13.25)"/><path class="cls-5" d="M250.56,67.68a2.86,2.86,0,0,0-.65.08,1.87,1.87,0,0,0-.65.28,1.47,1.47,0,0,0-.49.56,1.82,1.82,0,0,0-.2.9,1,1,0,0,0,.25.69,2.69,2.69,0,0,0,.64.51,7.7,7.7,0,0,0,.91.41l1,.43a7.52,7.52,0,0,1,1,.49,3.67,3.67,0,0,1,.89.73,3.52,3.52,0,0,1,.63,1,4.25,4.25,0,0,1,.22,1.45,3.47,3.47,0,0,1-1.4,3,5.84,5.84,0,0,1-3.35.92,7.72,7.72,0,0,1-1.65-.15q-.69-.13-1.6-.36l.24-2.37a5.7,5.7,0,0,0,2.87.81,3,3,0,0,0,1.5-.41,1.41,1.41,0,0,0,.74-1.28,1.45,1.45,0,0,0-.22-.81,2.19,2.19,0,0,0-.63-.56,16.59,16.59,0,0,0-1.9-.86,6.76,6.76,0,0,1-1-.53,4.75,4.75,0,0,1-.91-.68,3.57,3.57,0,0,1-.63-1,3.39,3.39,0,0,1-.25-1.37,3.59,3.59,0,0,1,1.4-3.12,5.29,5.29,0,0,1,3-.88,9.45,9.45,0,0,1,3,.47l-.24,2.16A6.46,6.46,0,0,0,250.56,67.68Z" transform="translate(-13.18 -13.25)"/></svg>